<svg xmlns="http://www.w3.org/2000/svg" width="18" height="18" viewBox="0 0 18 18">
  <defs>
    <style>
      .cls-1 {
        fill: #fff;
      }
    </style>
  </defs>
  <title>左边工具条</title>
  <g id="图层_1" data-name="图层 1">
    <g>
      <path class="cls-1" d="M17.2,4.22h0a.8.8,0,0,0-.8.8V15.37a1,1,0,0,1-1,1H2.66a1,1,0,0,1-1-1V2.63a1,1,0,0,1,1-1H13A.8.8,0,0,0,13,0H2.63A2.63,2.63,0,0,0,0,2.63V15.37A2.63,2.63,0,0,0,2.63,18H15.37A2.63,2.63,0,0,0,18,15.37V5A.8.8,0,0,0,17.2,4.22Z"/>
      <rect class="cls-1" x="3.61" y="12.32" width="10.78" height="1.58" rx="0.7" ry="0.7"/>
      <rect class="cls-1" x="3.61" y="4.11" width="5.78" height="1.58" rx="0.7" ry="0.7"/>
      <rect class="cls-1" x="3.61" y="8.21" width="10.78" height="1.58" rx="0.7" ry="0.7"/>
    </g>
  </g>
</svg>
