<svg xmlns="http://www.w3.org/2000/svg" width="840" height="280" viewBox="0 0 840 280">
  <defs>
    <style>
      .cls-1 {
        fill: #232323;
      }

      .cls-2, .cls-3 {
        fill: #858585;
      }

      .cls-2 {
        fill-rule: evenodd;
      }

      .cls-4 {
        opacity: 0.9;
      }

      .cls-5 {
        fill: #b5b5b5;
      }

      .cls-6 {
        fill: #292929;
      }

      .cls-7 {
        fill: #151515;
      }

      .cls-8 {
        fill: #fff;
      }

      .cls-9 {
        fill: #ffa800;
      }
    </style>
  </defs>
  <title>工具图标06</title>
  <g id="图层_1" data-name="图层 1">
    <rect class="cls-1" x="120" width="68" height="68"/>
    <rect class="cls-1" x="200" width="68" height="68"/>
    <rect class="cls-1" x="280" width="68" height="68"/>
    <rect class="cls-1" x="360" y="0.16" width="68" height="68"/>
    <rect class="cls-1" x="440" y="0.16" width="68" height="68"/>
    <rect class="cls-1" x="520" width="68" height="68"/>
    <rect class="cls-1" x="600" width="68" height="68"/>
    <polygon class="cls-2" points="248.67 11.33 238 11.33 230 11.33 219.33 11.33 214 11.33 214 19.33 214 27.33 219.33 27.33 219.33 19.33 230 19.33 230 51.33 222 51.33 222 56.67 246 56.67 246 51.33 238 51.33 238 19.33 248.67 19.33 248.67 27.33 254 27.33 254 19.33 254 11.33 248.67 11.33"/>
    <path class="cls-2" d="M175,11H133a2,2,0,0,0-2,2V55a2,2,0,0,0,2,2h42a2,2,0,0,0,2-2V13A2,2,0,0,0,175,11Zm-30.2,9.2a4.6,4.6,0,1,1-4.6,4.6A4.6,4.6,0,0,1,144.8,20.2Zm28.75,33.35h-39.1l10.35-15L151.7,49,167.8,24.8l5.75,9.34Z"/>
    <path class="cls-3" d="M329,8.92l-28,10V29.09l28-10Zm-8,30.16c-4.49,0-8,2.64-8,6s3.51,6,8,6,8-2.64,8-6S325.49,39.08,321,39.08Zm-24,8c-4.49,0-8,2.64-8,6s3.51,6,8,6,8-2.63,8-6S301.49,47.08,297,47.08ZM329,8.92l-28,10V53.09h4V21.87L325,15V45.08h4V8.92Z"/>
    <g>
      <path class="cls-3" d="M401.73,27.45V20.78a3.15,3.15,0,0,0-3.15-3.15H372.15A3.15,3.15,0,0,0,369,20.78V47.55a3.15,3.15,0,0,0,3.15,3.15h26.43a3.15,3.15,0,0,0,3.15-3.15V41h0V27.45Zm-10.06,8.14-9.86,5.92a1.49,1.49,0,0,1-2.25-1.27V28.4a1.49,1.49,0,0,1,2.25-1.28L391.67,33A1.49,1.49,0,0,1,391.67,35.59Z"/>
      <path class="cls-3" d="M417.62,21.31l-.27.12-9.11,4-3.36,1.48a1.05,1.05,0,0,0-.63,1V40.63a1.05,1.05,0,0,0,.62,1l3.37,1.51,8.27,3.7,1.11.5c.62.28,1.38-.07,1.38-.63V21.94C419,21.39,418.24,21,417.62,21.31Z"/>
    </g>
    <path class="cls-2" d="M495.25,18.46h-36.8v36.8A1.75,1.75,0,0,0,460.2,57h35A1.75,1.75,0,0,0,497,55.25v-35A1.75,1.75,0,0,0,495.25,18.46ZM470,26.17A3.85,3.85,0,1,1,466.17,30,3.86,3.86,0,0,1,470,26.17Zm23.91,27.77H461.52L470,41.58l5.78,8.67L489.29,30l4.64,7.54Z"/>
    <path class="cls-3" d="M489.54,21.28V12.75A1.75,1.75,0,0,0,487.8,11h-35A1.75,1.75,0,0,0,451,12.75v35a1.75,1.75,0,0,0,1.75,1.75h7.77m1-3.07h-7.46V14.07h32.41V21.8"/>
    <path class="cls-3" d="M556,41.08l-5.77-5.79.07-.07a40.59,40.59,0,0,0,8.43-15.07h6.66V15.54H549.45V10.93h-4.55v4.61H529v4.59h25.39a36.37,36.37,0,0,1-7.2,12.37,36.11,36.11,0,0,1-5.25-7.73h-4.55a40.6,40.6,0,0,0,6.77,10.52L532.59,46.87l3.23,3.28,11.36-11.54,7.07,7.18Zm12.8-11.7h-4.55L554,57.07h4.55l2.54-6.92h10.8l2.57,6.92H579Zm-6,16.15,3.68-10,3.68,10Z"/>
    <rect class="cls-4" x="680" width="16" height="16"/>
    <g>
      <path class="cls-5" d="M688.37,4.43a.22.22,0,1,0,.22-.22A.22.22,0,0,0,688.37,4.43Z"/>
      <path class="cls-5" d="M689.31,7.13A1.68,1.68,0,1,1,691,5.45,1.68,1.68,0,0,1,689.31,7.13Zm0-2.4a.72.72,0,1,0,.72.72A.72.72,0,0,0,689.31,4.73Z"/>
      <polygon class="cls-5" points="690.54 12.66 684.73 12.66 686.3 7.68 687.63 11.38 688.81 9.63 690.54 12.66"/>
      <path class="cls-5" d="M691.6,2.8V13.2h-7.2V2.8h7.2m.8-.8h-8.8V14h8.8V2Z"/>
      <g>
        <polygon class="cls-5" points="694 3 692.4 3 692.4 3.8 693.2 3.8 693.2 12.2 692.4 12.2 692.4 13 694 13 694 3"/>
        <polygon class="cls-5" points="682.8 12.2 682.8 3.8 683.6 3.8 683.6 3 682 3 682 13 683.6 13 683.6 12.2 682.8 12.2"/>
      </g>
    </g>
    <path class="cls-3" d="M652.53,26.46h0V21.11h0v-.6h0L639.78,8.07H615.5V26.48l-4,3V48.92h4v11h37v-11h4V29.39ZM618.38,11H638V22.28h11.63V29.4H618.38ZM640,32.2,634.73,46h-2.85l-5.15-13.8h3.38l3.24,9.09,3.31-9.09Zm-22.17,13V41.44l1.19,1a3.92,3.92,0,0,0,1.33.68,5.34,5.34,0,0,0,1.64.29c2,0,2-.79,2-1.16a.93.93,0,0,0-.17-.55,2,2,0,0,0-.59-.54,19.8,19.8,0,0,0-1.83-.95,7.87,7.87,0,0,1-2.8-1.94,3.6,3.6,0,0,1-.76-2.24,3.52,3.52,0,0,1,1.58-3,6.26,6.26,0,0,1,3.67-1,7.18,7.18,0,0,1,3.14.53l.37.19v3.51l-1.13-.76a4.48,4.48,0,0,0-2.52-.65,2.8,2.8,0,0,0-1.52.36.81.81,0,0,0-.42.75.91.91,0,0,0,.29.72,9.41,9.41,0,0,0,2,1.17,8.5,8.5,0,0,1,2.88,1.92,3.62,3.62,0,0,1,.92,2.41,3.55,3.55,0,0,1-1.52,3.07,6.51,6.51,0,0,1-3.84,1,9.61,9.61,0,0,1-1.93-.22,5,5,0,0,1-1.74-.61ZM649.61,57H618.38V48.92h31.24Zm.85-12.18-.36.2a9.66,9.66,0,0,1-4.7,1.15,6.56,6.56,0,0,1-6.91-6.95,7,7,0,0,1,2.09-5.21A7.32,7.32,0,0,1,645.91,32a9.45,9.45,0,0,1,3.83.7l.42.19v3.44l-1.1-.67a6.24,6.24,0,0,0-3.29-.83A3.9,3.9,0,0,0,642.83,36a4.29,4.29,0,0,0-1.16,3.18,4.38,4.38,0,0,0,1.06,3.15,3.75,3.75,0,0,0,2.86,1.08,5,5,0,0,0,1.78-.29V40.88h-2.79V38.08h5.89Z"/>
    <rect class="cls-1" x="720" width="68" height="68"/>
    <g>
      <path class="cls-3" d="M755.54,19.12a.91.91,0,1,0,.91-.9A.91.91,0,0,0,755.54,19.12Z"/>
      <path class="cls-3" d="M759.45,30.37a7,7,0,1,1,7-7A7,7,0,0,1,759.45,30.37Zm0-10a3,3,0,1,0,3,3A3,3,0,0,0,759.45,20.39Z"/>
      <polygon class="cls-3" points="764.57 53.42 740.36 53.42 746.94 32.69 752.47 48.09 757.38 40.81 764.57 53.42"/>
      <path class="cls-3" d="M769,12.33V55.67H739V12.33h30M772.33,9H735.67V59h36.67V9Z"/>
      <g>
        <polygon class="cls-3" points="779 13.17 772.33 13.17 772.33 16.5 775.67 16.5 775.67 51.5 772.33 51.5 772.33 54.83 779 54.83 779 13.17"/>
        <polygon class="cls-3" points="732.33 51.5 732.33 16.5 735.67 16.5 735.67 13.17 729 13.17 729 54.83 735.67 54.83 735.67 51.5 732.33 51.5"/>
      </g>
    </g>
  </g>
  <g id="图层_9" data-name="图层 9">
    <rect class="cls-6" width="18" height="18" rx="2" ry="2"/>
    <rect class="cls-6" x="40" width="18" height="18" rx="2" ry="2"/>
    <rect class="cls-6" x="80" width="18" height="18" rx="2" ry="2"/>
    <path class="cls-5" d="M13.1,5.3A.5.5,0,0,0,13,6a5,5,0,0,1-4,8V12.77l-1.5.87L6,14.5l1.5.87,1.5.87V15a6,6,0,0,0,4.8-9.6A.5.5,0,0,0,13.1,5.3Z"/>
    <path class="cls-5" d="M9,4V5.23l1.5-.87L12,3.5l-1.5-.87L9,1.77V3a6,6,0,0,0-4.84,9.54A.5.5,0,1,0,5,11.95,5,5,0,0,1,4,9,5,5,0,0,1,9,4Z"/>
    <path class="cls-5" d="M49,3a6,6,0,1,0,6,6A6,6,0,0,0,49,3Zm.5,10.95V13h-1v.95A5,5,0,0,1,44.05,9.5H45v-1h-.95A5,5,0,0,1,48.5,4.05V5h1V4.05A5,5,0,0,1,53.95,8.5H53v1h.95A5,5,0,0,1,49.5,13.95Z"/>
    <circle class="cls-5" cx="49" cy="9" r="1.5"/>
    <polygon class="cls-5" points="93.6 5.11 92.89 4.4 89 8.29 85.11 4.4 84.4 5.11 88.29 9 84.4 12.89 85.11 13.6 89 9.71 92.89 13.6 93.6 12.89 89.71 9 93.6 5.11"/>
    <rect class="cls-7" y="40" width="18" height="18" rx="2" ry="2"/>
    <rect class="cls-7" x="40" y="40" width="18" height="18" rx="2" ry="2"/>
    <rect class="cls-7" x="80" y="40" width="18" height="18" rx="2" ry="2"/>
    <path class="cls-8" d="M13.1,45.3a.5.5,0,0,0-.1.7,5,5,0,0,1-4,8V52.77l-1.5.87L6,54.5l1.5.87,1.5.87V55a6,6,0,0,0,4.8-9.6A.5.5,0,0,0,13.1,45.3Z"/>
    <path class="cls-8" d="M9,44v1.23l1.5-.87L12,43.5l-1.5-.87L9,41.77V43a6,6,0,0,0-4.84,9.54A.5.5,0,1,0,5,51.95,5,5,0,0,1,4,49,5,5,0,0,1,9,44Z"/>
    <path class="cls-8" d="M49,43a6,6,0,1,0,6,6A6,6,0,0,0,49,43Zm.5,10.95V53h-1v.95a5,5,0,0,1-4.45-4.45H45v-1h-.95a5,5,0,0,1,4.45-4.45V45h1v-.95a5,5,0,0,1,4.45,4.45H53v1h.95A5,5,0,0,1,49.5,53.95Z"/>
    <circle class="cls-8" cx="49" cy="49" r="1.5"/>
    <polygon class="cls-8" points="93.6 45.11 92.89 44.4 89 48.29 85.11 44.4 84.4 45.11 88.29 49 84.4 52.89 85.11 53.6 89 49.71 92.89 53.6 93.6 52.89 89.71 49 93.6 45.11"/>
    <rect class="cls-7" y="80" width="18" height="18" rx="2" ry="2"/>
    <rect class="cls-6" y="120" width="18" height="18" rx="2" ry="2"/>
    <rect class="cls-7" x="40" y="80" width="18" height="18" rx="2" ry="2"/>
    <rect class="cls-7" x="80" y="80" width="18" height="18" rx="2" ry="2"/>
    <path class="cls-9" d="M13.1,85.3a.5.5,0,0,0-.1.7,5,5,0,0,1-4,8V92.77l-1.5.87L6,94.5l1.5.87,1.5.87V95a6,6,0,0,0,4.8-9.6A.5.5,0,0,0,13.1,85.3Z"/>
    <path class="cls-9" d="M9,84v1.23l1.5-.87L12,83.5l-1.5-.87L9,81.77V83a6,6,0,0,0-4.84,9.54A.5.5,0,1,0,5,91.95,5,5,0,0,1,4,89,5,5,0,0,1,9,84Z"/>
    <path class="cls-9" d="M49,83a6,6,0,1,0,6,6A6,6,0,0,0,49,83Zm.5,10.95V93h-1v.95a5,5,0,0,1-4.45-4.45H45v-1h-.95a5,5,0,0,1,4.45-4.45V85h1v-.95a5,5,0,0,1,4.45,4.45H53v1h.95A5,5,0,0,1,49.5,93.95Z"/>
    <circle class="cls-9" cx="49" cy="89" r="1.5"/>
    <polygon class="cls-9" points="93.6 85.11 92.89 84.4 89 88.29 85.11 84.4 84.4 85.11 88.29 89 84.4 92.89 85.11 93.6 89 89.71 92.89 93.6 93.6 92.89 89.71 89 93.6 85.11"/>
    <g>
      <path class="cls-5" d="M9,133a.5.5,0,0,1-.35-.15l-4-4a.5.5,0,0,1,.71-.71L9,131.83l3.65-3.65a.5.5,0,0,1,.71.71l-4,4A.5.5,0,0,1,9,133Z"/>
      <path class="cls-5" d="M9,133a.5.5,0,0,1-.5-.5v-9.07a.5.5,0,1,1,1,0v9.07A.5.5,0,0,1,9,133Z"/>
      <path class="cls-5" d="M15,135H3a.5.5,0,0,1,0-1H15a.5.5,0,0,1,0,1Z"/>
    </g>
    <rect class="cls-7" y="160" width="18" height="18" rx="2" ry="2"/>
    <g>
      <path class="cls-8" d="M9,173a.5.5,0,0,1-.35-.15l-4-4a.5.5,0,0,1,.71-.71L9,171.83l3.65-3.65a.5.5,0,0,1,.71.71l-4,4A.5.5,0,0,1,9,173Z"/>
      <path class="cls-8" d="M9,173a.5.5,0,0,1-.5-.5v-9.07a.5.5,0,0,1,1,0v9.07A.5.5,0,0,1,9,173Z"/>
      <path class="cls-8" d="M15,175H3a.5.5,0,0,1,0-1H15a.5.5,0,0,1,0,1Z"/>
    </g>
    <rect class="cls-7" y="200" width="18" height="18" rx="2" ry="2"/>
    <g>
      <path class="cls-9" d="M9,213a.5.5,0,0,1-.35-.15l-4-4a.5.5,0,0,1,.71-.71L9,211.83l3.65-3.65a.5.5,0,0,1,.71.71l-4,4A.5.5,0,0,1,9,213Z"/>
      <path class="cls-9" d="M9,213a.5.5,0,0,1-.5-.5v-9.07a.5.5,0,0,1,1,0v9.07A.5.5,0,0,1,9,213Z"/>
      <path class="cls-9" d="M15,215H3a.5.5,0,0,1,0-1H15a.5.5,0,0,1,0,1Z"/>
    </g>
  </g>
</svg>
